<svg xmlns="http://www.w3.org/2000/svg" version="1.0" width="400.000000pt" height="100.000000pt" viewBox="0 0 400.000000 100.000000" preserveAspectRatio="xMidYMid meet">

<g transform="translate(0.000000,100.000000) scale(0.100000,-0.100000)" fill="#ffffff" stroke="none">
<path d="M387 984 c-32 -7 -82 -25 -111 -39 -57 -27 -146 -99 -146 -118 0 -22 687 -700 703 -694 25 10 85 91 117 159 43 93 56 180 41 276 -45 292 -323 484 -604 416z" fill="#ffffff"/>
<path d="M1460 505 l0 -345 216 0 215 0 -3 48 -3 47 -157 3 -158 3 0 294 0 295 -55 0 -55 0 0 -345z" fill="#ffffff"/>
<path d="M1966 828 c-9 -12 -16 -29 -16 -38 0 -9 7 -26 16 -38 23 -34 83 -27 104 11 13 24 13 30 0 55 -21 37 -81 44 -104 10z" fill="#ffffff"/>
<path d="M54 728 l-16 -31 329 -329 c324 -323 330 -329 356 -317 15 7 27 19 27 28 0 15 -658 681 -673 681 -3 0 -14 -14 -23 -32z" fill="#ffffff"/>
<path d="M2351 643 c-18 -9 -42 -31 -52 -47 l-19 -31 0 43 0 42 -55 0 -55 0 0 -245 0 -245 55 0 55 0 0 154 c0 166 8 206 47 231 29 20 102 22 130 4 42 -26 47 -48 51 -221 l4 -168 55 0 55 0 -4 183 c-3 167 -5 185 -26 222 -13 22 -39 51 -58 65 -47 31 -134 38 -183 13z" fill="#ffffff"/>
<path d="M2815 632 c-166 -90 -163 -375 5 -459 55 -28 164 -32 213 -7 57 29 117 97 117 134 0 5 -21 10 -47 10 -40 0 -50 -4 -72 -31 -41 -48 -121 -58 -178 -22 -24 16 -53 71 -53 102 0 21 4 21 181 21 l182 0 -7 58 c-8 71 -37 132 -81 171 -67 58 -178 68 -260 23z m175 -77 c30 -15 60 -61 60 -90 0 -13 -19 -15 -125 -15 -84 0 -125 4 -125 11 0 25 32 76 58 91 34 22 94 23 132 3z" fill="#ffffff"/>
<path d="M3325 636 c-52 -24 -81 -56 -95 -107 l-9 -29 54 0 c45 0 55 3 60 20 15 46 122 67 163 33 28 -24 38 -66 19 -81 -7 -7 -49 -16 -93 -22 -152 -20 -203 -54 -212 -138 -8 -89 45 -149 142 -159 70 -7 98 0 141 38 l35 31 0 -31 c0 -31 0 -31 55 -31 l55 0 0 173 c-1 179 -9 227 -47 269 -53 60 -179 76 -268 34z m205 -275 c0 -79 -44 -124 -121 -125 -56 -1 -89 23 -89 65 0 37 27 54 110 72 98 21 100 21 100 -12z" fill="#ffffff"/>
<path d="M3928 653 c-15 -2 -41 -20 -58 -39 l-30 -35 0 36 0 35 -55 0 -55 0 0 -245 0 -245 55 0 55 0 0 138 c1 213 16 251 109 260 l51 5 0 42 c0 40 -14 59 -38 54 -4 -1 -19 -4 -34 -6z" fill="#ffffff"/>
<path d="M1960 405 l0 -245 55 0 55 0 0 245 0 245 -55 0 -55 0 0 -245z" fill="#ffffff"/>
<path d="M4 564 l-7 -36 266 -265 265 -266 36 7 c20 4 36 12 36 19 0 16 -561 577 -577 577 -7 0 -15 -16 -19 -36z" fill="#ffffff"/>
<path d="M20 370 c0 -49 60 -152 127 -219 89 -89 233 -162 233 -118 0 13 -340 357 -353 357 -4 0 -7 -9 -7 -20z" fill="#ffffff"/>
</g>
</svg>