<svg width="40" height="40" viewBox="0 0 40 40" fill="none" xmlns="http://www.w3.org/2000/svg">
<path d="M9.2531 27.7936C6.4312 26.6224 3.82952 24.9788 1.55976 22.9336C1.21812 20.7606 1.26326 18.5442 1.69309 16.3869C4.00315 14.3273 6.65075 12.681 9.51976 11.5203C9.60504 11.6256 9.70112 11.7216 9.80642 11.8069C8.26724 16.91 8.19102 22.3426 9.58643 27.4869C9.46298 27.5749 9.351 27.6779 9.2531 27.7936Z" fill="url(#paint0_linear_2116_2713)"/>
<path d="M10.7733 30.9729C11.8339 33.5367 13.2647 35.931 15.02 38.0796C11.9075 37.2087 9.073 35.5479 6.79168 33.2584C4.51037 30.969 2.85973 28.1285 2 25.0129C4.07007 26.6554 6.3587 28.0016 8.8 29.0129C8.79632 29.0283 8.79632 29.0443 8.8 29.0596C8.8 29.5724 9.00369 30.0641 9.36626 30.4267C9.72883 30.7892 10.2206 30.9929 10.7333 30.9929L10.7733 30.9729Z" fill="url(#paint1_linear_2116_2713)"/>
<path d="M9.07351 10.3469C6.63412 11.3266 4.34318 12.6414 2.26685 14.2536C3.21671 11.3197 4.87864 8.66686 7.10413 6.53211C9.32961 4.39737 12.0493 2.84724 15.0202 2.02026C13.4332 3.95061 12.1125 6.08522 11.0935 8.36693H10.9868C10.4741 8.36693 9.98234 8.57063 9.61977 8.9332C9.2572 9.29577 9.05351 9.78751 9.05351 10.3003C9.05537 10.3175 9.06234 10.3337 9.07351 10.3469Z" fill="url(#paint2_linear_2116_2713)"/>
<path d="M12.2864 8.85332C13.4922 6.17351 15.1295 3.70968 17.133 1.55999C18.0988 1.40654 19.0752 1.33074 20.0531 1.33332C21.0242 1.33072 21.9941 1.40653 22.953 1.55999C24.9596 3.72368 26.599 6.20078 27.8064 8.89332C27.6659 9.03118 27.5428 9.18564 27.4397 9.35332C24.9271 8.64701 22.3297 8.28813 19.7197 8.28666C17.308 8.28726 14.9063 8.59643 12.573 9.20665C12.4921 9.07774 12.3958 8.9591 12.2864 8.85332Z" fill="url(#paint3_linear_2116_2713)"/>
<path d="M28.1339 30.5067C26.9026 33.4617 25.1503 36.1714 22.9606 38.5067C21.0323 38.8089 19.0688 38.8089 17.1405 38.5067C14.9559 36.1688 13.2062 33.4596 11.9739 30.5067C12.0863 30.4053 12.1889 30.2937 12.2805 30.1733C14.7059 30.8311 17.2076 31.1652 19.7206 31.1667C22.4295 31.1652 25.124 30.7723 27.7206 30C27.8296 30.1904 27.9692 30.3616 28.1339 30.5067Z" fill="url(#paint4_linear_2116_2713)"/>
<path d="M29.0671 12.2132C30.5414 17.0599 30.6199 22.2239 29.2937 27.1132C28.8494 27.1343 28.426 27.3084 28.0955 27.6062C27.765 27.9039 27.5476 28.3068 27.4804 28.7465C24.9629 29.5023 22.3489 29.8886 19.7204 29.8932C17.3318 29.8888 14.9539 29.5728 12.6471 28.9532C12.629 28.4721 12.4303 28.0155 12.0905 27.6744C11.7506 27.3334 11.2948 27.133 10.8137 27.1132C9.49166 22.2264 9.56556 17.0668 11.0271 12.2199C11.5132 12.2123 11.9786 12.0212 12.3297 11.6849C12.6809 11.3486 12.8919 10.8919 12.9204 10.4065C17.6125 9.18387 22.5472 9.24604 27.2071 10.5865C27.2748 11.0338 27.4988 11.4426 27.8393 11.7404C28.1798 12.0382 28.6148 12.2057 29.0671 12.2132Z" fill="url(#paint5_radial_2116_2713)"/>
<path d="M29.0205 8.34674C27.9901 6.06753 26.6679 3.93187 25.0872 1.99341C28.1799 2.85462 30.9993 4.49648 33.2747 6.76134C35.5501 9.0262 37.205 11.838 38.0805 14.9267C35.9518 13.143 33.5732 11.6808 31.0205 10.5867C31.031 10.487 31.031 10.3865 31.0205 10.2867C31.0187 9.77338 30.8136 9.28164 30.4499 8.91926C30.0863 8.55688 29.5939 8.3534 29.0805 8.3534L29.0205 8.34674Z" fill="url(#paint6_linear_2116_2713)"/>
<path d="M31.2863 28.7002C33.8222 27.5733 36.1785 26.0795 38.2797 24.2668C37.5216 27.5423 35.8951 30.5531 33.5711 32.9826C31.2472 35.4122 28.3116 37.1707 25.073 38.0735C26.8315 35.9272 28.2667 33.5352 29.333 30.9735H29.3797C29.6615 30.9706 29.9394 30.9067 30.1943 30.7862C30.4491 30.6657 30.6749 30.4915 30.856 30.2755C31.0372 30.0595 31.1694 29.8069 31.2437 29.535C31.318 29.263 31.3325 28.9783 31.2863 28.7002Z" fill="url(#paint7_linear_2116_2713)"/>
<path d="M38.7668 20.0466C38.7664 20.7687 38.7219 21.49 38.6335 22.2066C36.3087 24.4624 33.5995 26.2843 30.6335 27.5866C30.596 27.5477 30.5534 27.5141 30.5068 27.4866C31.9084 22.3466 31.8252 16.9147 30.2668 11.82L30.3935 11.72C33.4036 13.0069 36.1549 14.8298 38.5135 17.1C38.679 18.0735 38.7637 19.0591 38.7668 20.0466Z" fill="url(#paint8_linear_2116_2713)"/>
<defs>
<linearGradient id="paint0_linear_2116_2713" x1="1.33309" y1="19.6603" x2="9.80642" y2="19.6603" gradientUnits="userSpaceOnUse">
<stop stop-color="#3AB4E6"/>
<stop offset="1" stop-color="#004996"/>
</linearGradient>
<linearGradient id="paint1_linear_2116_2713" x1="6.79333" y1="33.2996" x2="9.66" y2="30.3596" gradientUnits="userSpaceOnUse">
<stop stop-color="#F08504"/>
<stop offset="1" stop-color="#E5322D"/>
</linearGradient>
<linearGradient id="paint2_linear_2116_2713" x1="7.02684" y1="6.50026" x2="9.43351" y2="8.90693" gradientUnits="userSpaceOnUse">
<stop stop-color="#F08504"/>
<stop offset="1" stop-color="#E5322D"/>
</linearGradient>
<linearGradient id="paint3_linear_2116_2713" x1="20.0464" y1="1.92665" x2="20.0464" y2="8.13332" gradientUnits="userSpaceOnUse">
<stop stop-color="#E53282"/>
<stop offset="1" stop-color="#851D7B"/>
</linearGradient>
<linearGradient id="paint4_linear_2116_2713" x1="20.0539" y1="31.2867" x2="20.0539" y2="38.7267" gradientUnits="userSpaceOnUse">
<stop stop-color="#851D7B"/>
<stop offset="1" stop-color="#E53282"/>
</linearGradient>
<radialGradient id="paint5_radial_2116_2713" cx="0" cy="0" r="1" gradientUnits="userSpaceOnUse" gradientTransform="translate(20.0537 19.7132) scale(10.18 10.18)">
<stop stop-color="#97BE11"/>
<stop offset="0.16" stop-color="#92BC12"/>
<stop offset="0.36" stop-color="#82B516"/>
<stop offset="0.58" stop-color="#69AB1C"/>
<stop offset="0.82" stop-color="#459C25"/>
<stop offset="1" stop-color="#258F2D"/>
</radialGradient>
<linearGradient id="paint6_linear_2116_2713" x1="30.4805" y1="9.28674" x2="33.5805" y2="6.96007" gradientUnits="userSpaceOnUse">
<stop stop-color="#E5322D"/>
<stop offset="1" stop-color="#F08504"/>
</linearGradient>
<linearGradient id="paint7_linear_2116_2713" x1="30.7397" y1="30.3802" x2="33.6863" y2="32.8602" gradientUnits="userSpaceOnUse">
<stop stop-color="#E5322D"/>
<stop offset="1" stop-color="#F08504"/>
</linearGradient>
<linearGradient id="paint8_linear_2116_2713" x1="30.2802" y1="19.6533" x2="38.7668" y2="19.6533" gradientUnits="userSpaceOnUse">
<stop stop-color="#004996"/>
<stop offset="1" stop-color="#3AB4E6"/>
</linearGradient>
</defs>
</svg>
