<svg width="40" height="40" viewBox="0 0 40 40" fill="none" xmlns="http://www.w3.org/2000/svg">
<path d="M36.951 14.2246C36.934 13.8085 36.8935 13.3937 36.8297 12.9821C36.7554 12.5465 36.6563 12.1155 36.5328 11.6912C35.9173 9.8188 34.8806 8.11244 33.5025 6.70334L33.3813 6.59425V6.55788C32.0134 5.23796 30.3516 4.26169 28.5328 3.7094C28.1104 3.58659 27.6814 3.48745 27.2479 3.41244C26.8469 3.34523 26.4421 3.30272 26.0358 3.28516C25.2862 3.25633 24.5362 3.32767 23.8055 3.49729C23.1804 3.64012 22.5813 3.87934 22.0297 4.20637C21.5539 4.47799 21.131 4.83316 20.7813 5.25486C20.3421 5.77638 20.0456 6.4028 19.9207 7.07304V9.12758C20.2135 8.35534 20.7073 7.67534 21.351 7.15789C21.7192 6.85058 22.1269 6.59377 22.5631 6.39425C23.0549 6.17831 23.5722 6.02558 24.1025 5.93971C24.704 5.84748 25.3143 5.82713 25.9207 5.8791C26.5864 5.94404 27.2429 6.08226 27.8782 6.29122C29.2921 6.77561 30.5771 7.57564 31.6358 8.63062C32.6919 9.69076 33.492 10.978 33.9752 12.3943C34.1852 13.0294 34.3234 13.686 34.3873 14.3518C34.4398 14.9581 34.4194 15.5685 34.3267 16.17C34.2445 16.7011 34.0917 17.2188 33.8722 17.7094C33.6761 18.1461 33.4212 18.5539 33.1146 18.9215C32.5782 19.5592 31.8815 20.0424 31.0964 20.3215H33.151C33.8212 20.1966 34.4476 19.9001 34.9691 19.4609C35.3869 19.1176 35.7381 18.7006 36.0055 18.2306C36.334 17.6776 36.5733 17.0763 36.7146 16.4488C36.8951 15.7217 36.9746 14.9733 36.951 14.2246Z" fill="url(#paint0_linear_2233_2209)"/>
<path d="M32.7884 17.6006C33.0599 17.1715 33.2643 16.7034 33.3945 16.2127C33.5155 15.6738 33.5725 15.1225 33.5642 14.5703C33.5325 13.9547 33.4308 13.3447 33.2611 12.7521C33.0669 12.0992 32.7899 11.474 32.4369 10.8915C32.0478 10.2753 31.5992 9.69882 31.0975 9.17025L31.0127 9.09751L30.8733 8.946C30.4037 8.51506 29.8897 8.13516 29.3399 7.81267C28.7695 7.46527 28.159 7.18849 27.5218 6.98843C26.9292 6.81874 26.3192 6.71708 25.7036 6.6854C25.1495 6.68011 24.5965 6.73703 24.0551 6.85509C23.5657 6.9892 23.0982 7.19333 22.6672 7.46115C22.2895 7.6998 21.9571 8.00348 21.6854 8.35812C21.1999 9.00939 20.9174 9.78944 20.8733 10.6005C20.8519 11.0049 20.864 11.4103 20.9096 11.8127C21.1352 11.184 21.5168 10.623 22.0187 10.1824C22.5956 9.71013 23.2882 9.40049 24.0248 9.28539C24.2248 9.25509 24.4308 9.23085 24.6308 9.21872C24.8448 9.20687 25.0593 9.20687 25.2733 9.21872C25.4915 9.21872 25.7157 9.26721 25.9399 9.30964C26.1642 9.35206 26.3884 9.4248 26.6187 9.49753C27.58 9.82136 28.4548 10.3603 29.1763 11.0733C29.8833 11.8056 30.4158 12.6882 30.7339 13.6551C30.8057 13.8761 30.8664 14.1007 30.9157 14.3278C30.9608 14.5498 30.9912 14.7745 31.0066 15.0005C31.0066 15.2187 31.0066 15.4309 31.0066 15.643C31.0066 15.8551 30.9642 16.0612 30.9339 16.249C30.8225 16.9867 30.5125 17.6802 30.0369 18.2551C29.599 18.7601 29.0371 19.1423 28.4066 19.3642C28.8087 19.4128 29.2144 19.425 29.6187 19.4006C30.4298 19.3614 31.2108 19.0807 31.8612 18.5945C32.2255 18.3194 32.5393 17.9831 32.7884 17.6006Z" fill="url(#paint1_linear_2233_2209)"/>
<path d="M29.5573 17.4668C29.7864 17.1538 29.9587 16.803 30.0663 16.4304C30.178 16.057 30.2311 15.6686 30.2239 15.2789C30.2294 14.8527 30.1722 14.4279 30.0542 14.0183C29.7922 13.1054 29.3069 12.2723 28.6421 11.5941C27.9658 10.9268 27.1319 10.441 26.2179 10.1819C25.8077 10.0665 25.3833 10.0094 24.9573 10.0122C24.5692 10.0066 24.1827 10.0618 23.8118 10.1759C23.4391 10.2852 23.0869 10.4552 22.7694 10.6789C22.4765 10.8995 22.2208 11.1655 22.0118 11.4668C21.6363 12.0352 21.3958 12.682 21.3088 13.3577C21.2618 13.6972 21.2355 14.0392 21.23 14.3819C21.4293 13.9208 21.7247 13.5075 22.0966 13.1698C22.4856 12.8364 22.9526 12.6071 23.4542 12.5031C24.0396 12.4027 24.6405 12.444 25.2066 12.6237C25.7727 12.8034 26.2875 13.1162 26.7078 13.5359C27.1281 13.9556 27.4416 14.4699 27.6221 15.0358C27.8026 15.6016 27.8448 16.2025 27.7451 16.788C27.638 17.2885 27.409 17.7548 27.0785 18.1456C26.7435 18.5205 26.3295 18.8165 25.8663 19.0122C26.2092 19.0097 26.5514 18.9833 26.8906 18.9334C27.5665 18.8474 28.2135 18.6069 28.7815 18.2304C29.0803 18.0202 29.3423 17.7622 29.5573 17.4668Z" fill="url(#paint2_linear_2233_2209)"/>
<path d="M26.8722 17.0852C27.0636 16.5891 27.1078 16.0482 26.9995 15.5276C26.9316 15.256 26.8361 14.992 26.7146 14.7397C26.5517 14.4991 26.3671 14.2739 26.1631 14.067V14.0367L25.9328 13.8488C25.7876 13.7303 25.6336 13.6229 25.4722 13.5276C25.2208 13.4026 24.9567 13.305 24.6843 13.2367C24.1295 13.1167 23.5509 13.1772 23.0329 13.4094C22.515 13.6417 22.0849 14.0335 21.8055 14.5276C21.5278 15.0141 21.3236 15.539 21.1995 16.0852C21.1268 16.364 21.0722 16.6428 21.0298 16.9034C21.1839 16.5928 21.3887 16.3101 21.6358 16.067C21.873 15.8428 22.1564 15.6731 22.4661 15.57C22.7714 15.4775 23.0955 15.4668 23.4062 15.5392C23.7168 15.6115 24.0029 15.7643 24.2358 15.9822C24.4548 16.2145 24.6087 16.5003 24.6821 16.811C24.7555 17.1216 24.7458 17.4461 24.654 17.7519C24.5477 18.0601 24.3785 18.3428 24.1571 18.5822C23.9088 18.826 23.6247 19.0303 23.3146 19.1882C23.5813 19.1397 23.854 19.0852 24.1328 19.0185C24.6798 18.897 25.2051 18.6926 25.6904 18.4125C26.223 18.1163 26.6395 17.6484 26.8722 17.0852Z" fill="url(#paint3_linear_2233_2209)"/>
<path d="M19.0358 5.24889C18.686 4.8272 18.2631 4.47201 17.7873 4.2004C17.2341 3.87234 16.6328 3.63307 16.0055 3.49131C15.2769 3.32166 14.5288 3.25032 13.7812 3.27919C13.375 3.29675 12.9702 3.33925 12.5691 3.40646C12.1338 3.48212 11.7029 3.58125 11.2782 3.70343C9.39185 4.27657 7.67546 5.30498 6.28034 6.69799C4.88522 8.09099 3.85421 9.80583 3.27821 11.6913C3.15472 12.1156 3.05556 12.5466 2.98124 12.9822C2.91146 13.393 2.87095 13.8082 2.86003 14.2246C2.82546 14.9724 2.89687 15.7212 3.07215 16.4489C3.21408 17.0752 3.45117 17.6762 3.77518 18.2307C4.04685 18.7047 4.40207 19.1256 4.82367 19.4731C5.34564 19.9116 5.97187 20.208 6.64185 20.3337H8.69639C7.92321 20.0395 7.24158 19.5461 6.72064 18.9034C6.4119 18.5374 6.15682 18.1292 5.96306 17.6913C5.74079 17.2018 5.5878 16.6837 5.50852 16.1519C5.41582 15.5504 5.39548 14.94 5.44791 14.3337C5.50675 13.6676 5.64303 13.0107 5.85397 12.3762C6.35708 10.9489 7.17056 9.65107 8.23579 8.57616C9.28944 7.54123 10.5607 6.75445 11.957 6.27313C12.5923 6.06373 13.2488 5.92551 13.9146 5.86101C14.5209 5.80915 15.1312 5.8295 15.7328 5.92162C16.263 6.00749 16.7803 6.16022 17.2722 6.37616C17.7084 6.57568 18.116 6.83249 18.4843 7.1398C19.1263 7.65887 19.6197 8.33837 19.9146 9.10949V7.05495C19.7824 6.3872 19.4796 5.76502 19.0358 5.24889Z" fill="url(#paint4_linear_2233_2209)"/>
<path d="M18.9514 10.5881C18.9123 9.77698 18.6316 8.99608 18.1454 8.34568C17.8737 7.99104 17.5412 7.68735 17.1636 7.4487C16.7325 7.18087 16.2651 6.97674 15.7757 6.84264C15.2343 6.72458 14.6813 6.66766 14.1272 6.67294C13.5116 6.70415 12.9015 6.80583 12.309 6.97597C11.6571 7.17281 11.0322 7.44967 10.4484 7.80022C9.82743 8.16558 9.25173 8.60295 8.73326 9.10325C8.22289 9.62649 7.77355 10.2059 7.39387 10.8305C7.04514 11.4144 6.77031 12.0394 6.57568 12.6911C6.40311 13.2831 6.30139 13.8934 6.27265 14.5093C6.26131 15.0617 6.31831 15.6133 6.44235 16.1517C6.57255 16.6425 6.77693 17.1105 7.04841 17.5396C7.29087 17.918 7.59628 18.2521 7.95144 18.5275C8.60076 19.0157 9.3823 19.2967 10.1939 19.3335C10.5982 19.358 11.0039 19.3458 11.406 19.2972C10.7747 19.0769 10.2124 18.6944 9.77568 18.1881C9.29773 17.6147 8.98734 16.9206 8.87871 16.182C8.84208 15.9817 8.81779 15.7793 8.80599 15.576C8.80599 15.3639 8.80599 15.1517 8.80599 14.9335C8.82232 14.708 8.85064 14.4834 8.89083 14.2608C8.94538 14.0366 9.00599 13.8123 9.07871 13.5881C9.40637 12.6254 9.94708 11.7491 10.6605 11.0245C11.3821 10.3115 12.2568 9.77254 13.2181 9.4487C13.4484 9.37598 13.6727 9.31537 13.8908 9.26083C14.109 9.20628 14.3454 9.19416 14.5636 9.16992C14.7775 9.15798 14.992 9.15798 15.206 9.16992C15.4181 9.16992 15.6242 9.20628 15.812 9.23659C16.5469 9.35158 17.2375 9.6613 17.812 10.1336C18.3177 10.5709 18.7001 11.1329 18.9211 11.7639C18.9684 11.3738 18.9785 10.9801 18.9514 10.5881Z" fill="url(#paint5_linear_2233_2209)"/>
<path d="M12.054 16.7819C11.9546 16.197 11.9968 15.5968 12.177 15.0315C12.3572 14.4662 12.6701 13.9523 13.0897 13.5328C13.5092 13.1132 14.0231 12.8003 14.5884 12.6201C15.1537 12.4399 15.7539 12.3977 16.3389 12.4971C16.8426 12.6 17.3119 12.8295 17.7025 13.1638C18.0744 13.5015 18.3699 13.9147 18.5692 14.3759C18.5615 14.0331 18.5331 13.691 18.4843 13.3516C18.4 12.6753 18.1593 12.0279 17.7813 11.4607C17.5745 11.1596 17.3208 10.8936 17.0298 10.6728C16.7122 10.4491 16.3601 10.2792 15.9873 10.1698C15.6142 10.0562 15.2258 10.001 14.8358 10.0062C14.4118 10.0037 13.9894 10.0608 13.5813 10.1759C12.6672 10.435 11.8333 10.9207 11.157 11.588C10.4906 12.266 10.0033 13.0991 9.73885 14.0122C9.62717 14.4232 9.57012 14.847 9.56915 15.2729C9.56696 15.6626 9.62209 16.0506 9.73279 16.4244C9.84044 16.797 10.0128 17.1478 10.2419 17.4607C10.4594 17.7563 10.7259 18.0126 11.0298 18.2183C11.5977 18.5947 12.2447 18.8353 12.9207 18.9213C13.2599 18.9712 13.6021 18.9975 13.9449 19.0001C13.4818 18.8044 13.0678 18.5084 12.7328 18.1335C12.3959 17.7476 12.1624 17.2826 12.054 16.7819Z" fill="url(#paint6_linear_2233_2209)"/>
<path d="M18.5754 16.0792C18.4513 15.533 18.2471 15.0081 17.9693 14.5216C17.69 14.0275 17.2599 13.6357 16.7419 13.4035C16.224 13.1712 15.6453 13.1107 15.0906 13.2307C14.5456 13.3465 14.0451 13.6156 13.6481 14.0065C13.4492 14.2203 13.2725 14.4539 13.1209 14.7035C12.9967 14.9546 12.9011 15.2189 12.836 15.4913C12.7277 16.012 12.7719 16.5528 12.9633 17.0489C13.1916 17.6061 13.6017 18.0696 14.1269 18.3641C14.6106 18.6431 15.1337 18.8475 15.6784 18.9701C15.9633 19.0368 16.236 19.0913 16.5027 19.1398C16.1926 18.9819 15.9085 18.7775 15.6603 18.5338C15.4388 18.2944 15.2696 18.0117 15.1633 17.7035C15.0715 17.3977 15.0618 17.0732 15.1352 16.7626C15.2086 16.4519 15.3625 16.1661 15.5815 15.9338C15.8144 15.7159 16.1005 15.5631 16.4111 15.4908C16.7218 15.4184 17.046 15.4291 17.3512 15.5216C17.6609 15.6247 17.9443 15.7943 18.1815 16.0186C18.4267 16.2634 18.6313 16.5457 18.7875 16.855C18.7027 16.6368 18.6421 16.358 18.5754 16.0792Z" fill="url(#paint7_linear_2233_2209)"/>
<path d="M21.6492 32.3276C21.9242 32.6792 22.256 32.9824 22.631 33.2246C23.062 33.4924 23.5295 33.6966 24.0189 33.8307C24.5603 33.9487 25.1133 34.0057 25.6674 34.0004C26.2835 33.9694 26.8938 33.8657 27.4855 33.6913C28.1367 33.4949 28.7599 33.2159 29.3401 32.861C29.8829 32.5319 30.3906 32.148 30.8552 31.7155C30.8977 31.6792 30.9401 31.6246 30.9825 31.5822L31.0613 31.5155C31.5626 30.9866 32.0111 30.4101 32.4007 29.7943C32.7537 29.2118 33.0307 28.5865 33.2249 27.9337C33.3942 27.341 33.4958 26.7311 33.528 26.1155C33.5366 25.5633 33.4797 25.0119 33.3583 24.4731C33.2281 23.9823 33.0237 23.5143 32.7522 23.0852C32.5098 22.7068 32.2043 22.3727 31.8492 22.0973C31.1988 21.6111 30.4179 21.3304 29.6068 21.2913C29.2025 21.2669 28.7968 21.279 28.3946 21.3276C29.0252 21.5495 29.587 21.9317 30.0249 22.4367C30.4995 23.0099 30.8095 23.7012 30.9219 24.4367C30.9219 24.6367 30.9825 24.8428 30.9946 25.0428C31.0068 25.2428 30.9946 25.467 30.9946 25.6852C30.9839 25.919 30.9576 26.1519 30.9159 26.3822C30.8666 26.6093 30.8059 26.8339 30.734 27.0549C30.4061 28.0157 29.8654 28.89 29.1522 29.6125C28.4329 30.3297 27.5576 30.8711 26.5946 31.1943C26.3643 31.267 26.1401 31.3276 25.9158 31.3822C25.6916 31.4367 25.4674 31.4489 25.2492 31.4731C25.031 31.4973 24.8128 31.4731 24.6068 31.4731C24.4007 31.4731 24.1886 31.4367 24.0007 31.4064C23.2641 31.2913 22.5716 30.9817 21.9946 30.5095C21.4808 30.0707 21.0884 29.5072 20.8552 28.8731C20.8096 29.2754 20.7974 29.6809 20.8189 30.0852C20.8683 30.8982 21.1572 31.6785 21.6492 32.3276Z" fill="url(#paint8_linear_2233_2209)"/>
<path d="M21.8308 26.152C22.1102 26.6461 22.5403 27.0379 23.0583 27.2702C23.5762 27.5024 24.1548 27.563 24.7096 27.4429C24.982 27.3746 25.2461 27.277 25.4975 27.152C25.6589 27.0567 25.8129 26.9493 25.9581 26.8308L26.0672 26.7399L26.1945 26.6308C26.396 26.4206 26.571 26.1865 26.7157 25.9338C26.8372 25.6816 26.9326 25.4175 27.0005 25.1459C27.1092 24.6253 27.065 24.0844 26.8733 23.5884C26.6434 23.0302 26.2311 22.5666 25.7036 22.2732C25.2183 21.993 24.693 21.7887 24.146 21.6671C23.8672 21.6005 23.5945 21.5459 23.3278 21.4974C23.6391 21.6533 23.9235 21.8579 24.1702 22.1035C24.3903 22.3416 24.5594 22.622 24.6672 22.9277C24.7601 23.2343 24.7704 23.56 24.697 23.8719C24.6235 24.1837 24.469 24.4706 24.249 24.7035C24.0161 24.9214 23.73 25.0742 23.4194 25.1465C23.1087 25.2188 22.7845 25.2082 22.4793 25.1156C22.1706 25.0103 21.8877 24.8409 21.649 24.6186C21.4019 24.3755 21.197 24.0928 21.043 23.7823C21.0854 24.0429 21.1399 24.3217 21.2127 24.6005C21.3422 25.1449 21.5505 25.6676 21.8308 26.152Z" fill="url(#paint9_linear_2233_2209)"/>
<path d="M36.7398 24.2248C36.5919 23.5955 36.3443 22.994 36.0064 22.443C35.7367 21.9676 35.3812 21.5464 34.9579 21.2005C34.4368 20.7597 33.8104 20.4611 33.1398 20.3339H31.0973C31.8682 20.6323 32.5488 21.125 33.0731 21.7642C33.3771 22.1337 33.6317 22.5411 33.8307 22.9763C34.0493 23.4693 34.2022 23.9889 34.2852 24.5217C34.3779 25.1232 34.3983 25.7336 34.3458 26.3399C34.2819 27.0058 34.1437 27.6624 33.9337 28.2975C33.4505 29.7138 32.6504 31.001 31.5943 32.0611C30.5356 33.1161 29.2506 33.9162 27.8367 34.4005C27.2013 34.6095 26.5448 34.7477 25.8792 34.8127C25.2728 34.8616 24.6628 34.8412 24.061 34.752C23.5307 34.6662 23.0134 34.5134 22.5216 34.2975C22.0854 34.098 21.6777 33.8412 21.3095 33.5339C20.6655 33.0141 20.1718 32.3321 19.8792 31.5581V33.6187C20.0054 34.2885 20.3018 34.9146 20.7398 35.4369C21.0895 35.8586 21.5124 36.2138 21.9882 36.4854C22.541 36.8099 23.1397 37.049 23.764 37.1945C24.4945 37.3649 25.2449 37.4343 25.9943 37.4005C26.4006 37.3879 26.8056 37.3474 27.2064 37.2793C27.6399 37.2043 28.0688 37.1052 28.4913 36.9823C30.3606 36.4133 32.0626 35.3959 33.4488 34.0187C35.1857 32.3283 36.3403 30.1295 36.7458 27.7399C36.8096 27.3284 36.8501 26.9136 36.867 26.4975C36.9309 25.7377 36.8881 24.9727 36.7398 24.2248Z" fill="url(#paint10_linear_2233_2209)"/>
<path d="M27.739 23.8913C27.8431 24.4786 27.8042 25.0824 27.6257 25.6515C27.4472 26.2206 27.1343 26.7383 26.7134 27.161C26.2926 27.5836 25.7761 27.8987 25.2078 28.0797C24.6394 28.2606 24.0359 28.302 23.4481 28.2004C22.9471 28.0948 22.4805 27.8656 22.0905 27.5338C21.7186 27.196 21.4232 26.7828 21.2239 26.3216C21.2294 26.6643 21.2557 27.0064 21.3027 27.3459C21.3887 28.0199 21.6293 28.665 22.0057 29.2307C22.2114 29.5346 22.4677 29.8011 22.7633 30.0186C23.0791 30.2466 23.4317 30.4187 23.8057 30.5277C24.1766 30.6417 24.5631 30.6969 24.9512 30.6913C25.3772 30.6942 25.8016 30.6371 26.2118 30.5216C27.1258 30.2625 27.9597 29.7768 28.636 29.1095C29.3008 28.4313 29.7861 27.5981 30.0481 26.6853C30.1657 26.2756 30.2229 25.8509 30.2178 25.4247C30.225 25.035 30.1719 24.6466 30.0602 24.2731C29.9526 23.9005 29.7803 23.5497 29.5511 23.2368C29.3337 22.9411 29.0673 22.6849 28.7633 22.4792C28.1953 22.1028 27.5483 21.8622 26.8724 21.7762C26.5332 21.7263 26.1909 21.7 25.8481 21.6974C26.3097 21.8931 26.7233 22.1867 27.0602 22.558C27.3899 22.9418 27.6226 23.399 27.739 23.8913Z" fill="url(#paint11_linear_2233_2209)"/>
<path d="M18.4661 33.5093C18.0978 33.8166 17.6902 34.0734 17.254 34.2729C16.7621 34.4889 16.2449 34.6416 15.7146 34.7275C15.1128 34.8165 14.5028 34.8368 13.8964 34.7881C13.2306 34.7236 12.5741 34.5854 11.9388 34.376C10.5238 33.8903 9.23704 33.0905 8.17518 32.0366C7.12324 30.9731 6.32374 29.6869 5.83579 28.2729C5.62485 27.6384 5.48857 26.9814 5.42973 26.3154C5.37729 25.7091 5.39764 25.0986 5.49034 24.4972C5.57052 23.9637 5.72346 23.4437 5.94488 22.9517C6.14155 22.5153 6.39639 22.1076 6.70246 21.7396C7.23324 21.1023 7.92027 20.6137 8.69639 20.3214H6.64185C5.97144 20.4494 5.34529 20.7479 4.82367 21.1881C4.40207 21.5356 4.04685 21.9565 3.77518 22.4305C3.45022 22.9846 3.21306 23.5856 3.07215 24.2123C2.89687 24.94 2.82546 25.6889 2.86003 26.4366C2.87095 26.8531 2.91146 27.2682 2.98124 27.679C3.38675 30.0685 4.54133 32.2673 6.27821 33.9578C7.66004 35.3288 9.35554 36.3419 11.2176 36.9093C11.6422 37.0315 12.0732 37.1306 12.5085 37.2063C12.9093 37.2744 13.3143 37.3149 13.7206 37.3275C14.468 37.3613 15.2164 37.2919 15.9449 37.1214C16.5714 36.977 17.1722 36.7378 17.7267 36.4123C18.2192 36.1649 18.6627 35.8302 19.0358 35.4244C19.4738 34.9022 19.7701 34.2761 19.8964 33.6063V31.5456C19.5998 32.3142 19.1066 32.9913 18.4661 33.5093Z" fill="url(#paint12_linear_2233_2209)"/>
<path d="M7.00602 23.0732C6.73453 23.5023 6.53016 23.9703 6.39996 24.4611C6.27555 24.9994 6.21855 25.5511 6.23026 26.1035C6.25945 26.7194 6.36116 27.3297 6.53329 27.9217C6.72792 28.5734 7.00275 29.1984 7.35147 29.7823C7.74845 30.4118 8.2117 30.9969 8.73329 31.5278L8.76965 31.5702C9.27165 32.0621 9.83127 32.4914 10.4363 32.849C11.0196 33.1959 11.6449 33.4668 12.2969 33.655C12.8886 33.83 13.4989 33.9337 14.1151 33.9641C14.6692 33.9694 15.2222 33.9125 15.7636 33.7944C16.253 33.6603 16.7205 33.4562 17.1515 33.1884C17.5264 32.9462 17.8583 32.643 18.1333 32.2914C18.6195 31.641 18.9002 30.8601 18.9394 30.049C18.9669 29.6447 18.9547 29.2387 18.903 28.8369C18.6961 29.4776 18.324 30.0524 17.8242 30.5035C17.2496 30.9758 16.559 31.2855 15.8242 31.4005C15.6242 31.4308 15.4181 31.4551 15.2181 31.4672C15.0181 31.4793 14.7939 31.4672 14.5757 31.4672C14.3575 31.4672 14.1272 31.4187 13.903 31.3763C13.6787 31.3338 13.4606 31.2611 13.2303 31.1884C12.2673 30.8651 11.392 30.3238 10.6727 29.6066C9.95951 28.8841 9.41878 28.0098 9.09086 27.049C9.01814 26.8247 8.95753 26.6005 8.90299 26.3763C8.86316 26.1536 8.83484 25.9291 8.81814 25.7035C8.81814 25.4854 8.81814 25.2732 8.81814 25.0611C8.83019 24.8578 8.85448 24.6554 8.89086 24.4551C9.00056 23.7187 9.31089 23.0267 9.78784 22.455C10.2246 21.9488 10.7868 21.5663 11.4181 21.346C11.016 21.2973 10.6103 21.2852 10.206 21.3096C9.39446 21.3465 8.61292 21.6274 7.96359 22.1156C7.59152 22.3772 7.26754 22.7012 7.00602 23.0732Z" fill="url(#paint13_linear_2233_2209)"/>
<path d="M10.236 23.2062C10.0069 23.5192 9.83458 23.87 9.72693 24.2426C9.61623 24.6163 9.5611 25.0043 9.5633 25.3941C9.56426 25.8199 9.62132 26.2438 9.73299 26.6547C9.99742 27.5679 10.4848 28.401 11.1512 29.079C11.8275 29.7463 12.6613 30.232 13.5754 30.4911C13.9836 30.6061 14.4059 30.6632 14.83 30.6608C15.2199 30.6659 15.6084 30.6107 15.9815 30.4971C16.3555 30.3882 16.708 30.216 17.0239 29.9881C17.3177 29.7705 17.5719 29.5039 17.7754 29.2002C18.1544 28.6357 18.3952 27.9901 18.4784 27.3153C18.5273 26.9759 18.5556 26.6339 18.5633 26.2911C18.364 26.7522 18.0685 27.1655 17.6966 27.5032C17.3051 27.8362 16.8362 28.0654 16.333 28.1699C15.7481 28.2692 15.1478 28.227 14.5826 28.0469C14.0173 27.8667 13.5034 27.5537 13.0838 27.1342C12.6643 26.7146 12.3513 26.2007 12.1711 25.6355C11.991 25.0702 11.9488 24.4699 12.0481 23.885C12.1538 23.3822 12.3829 22.9136 12.7148 22.5214C13.0517 22.1501 13.4653 21.8564 13.9269 21.6608C13.5841 21.6633 13.2419 21.6897 12.9027 21.7396C12.2268 21.8256 11.5797 22.0661 11.0118 22.4426C10.7103 22.6495 10.4477 22.908 10.236 23.2062Z" fill="url(#paint14_linear_2233_2209)"/>
<path d="M12.9207 23.5884C12.7242 24.0918 12.6799 24.6418 12.7934 25.1702C12.8586 25.4426 12.9541 25.7069 13.0783 25.958C13.2314 26.2066 13.408 26.44 13.6055 26.655V26.6853C13.8029 26.8645 14.0182 27.0229 14.248 27.158C14.4989 27.2841 14.7632 27.3816 15.0359 27.449C15.5906 27.569 16.1693 27.5085 16.6872 27.2762C17.2052 27.044 17.6353 26.6522 17.9146 26.158C18.1913 25.6711 18.3955 25.1464 18.5207 24.6005C18.5874 24.3217 18.648 24.0429 18.6904 23.7823C18.5342 24.0915 18.3296 24.3739 18.0843 24.6186C17.8457 24.8409 17.5627 25.0103 17.254 25.1156C16.9488 25.2082 16.6246 25.2188 16.314 25.1465C16.0034 25.0742 15.7173 24.9214 15.4843 24.7035C15.2644 24.4706 15.1098 24.1837 15.0364 23.8719C14.963 23.56 14.9732 23.2343 15.0662 22.9277C15.174 22.622 15.3431 22.3416 15.5631 22.1035C15.8098 21.8579 16.0942 21.6533 16.4055 21.4974C16.1389 21.5459 15.8662 21.6005 15.5813 21.6671C15.0365 21.7898 14.5135 21.9941 14.0298 22.2732C13.5237 22.5756 13.1333 23.0385 12.9207 23.5884Z" fill="url(#paint15_linear_2233_2209)"/>
<defs>
<linearGradient id="paint0_linear_2233_2209" x1="19.8964" y1="11.8064" x2="36.957" y2="11.8064" gradientUnits="userSpaceOnUse">
<stop stop-color="#E53282"/>
<stop offset="1" stop-color="#851D7B"/>
</linearGradient>
<linearGradient id="paint1_linear_2233_2209" x1="20.8248" y1="13.049" x2="33.546" y2="13.049" gradientUnits="userSpaceOnUse">
<stop stop-color="#E53282"/>
<stop offset="1" stop-color="#851D7B"/>
</linearGradient>
<linearGradient id="paint2_linear_2233_2209" x1="21.2239" y1="14.5031" x2="30.23" y2="14.5031" gradientUnits="userSpaceOnUse">
<stop stop-color="#E53282"/>
<stop offset="1" stop-color="#851D7B"/>
</linearGradient>
<linearGradient id="paint3_linear_2233_2209" x1="21.048" y1="16.1822" x2="27.054" y2="16.1822" gradientUnits="userSpaceOnUse">
<stop stop-color="#E53282"/>
<stop offset="1" stop-color="#851D7B"/>
</linearGradient>
<linearGradient id="paint4_linear_2233_2209" x1="2.82973" y1="11.8065" x2="19.8964" y2="11.8065" gradientUnits="userSpaceOnUse">
<stop stop-color="#F08504"/>
<stop offset="1" stop-color="#E5322D"/>
</linearGradient>
<linearGradient id="paint5_linear_2233_2209" x1="6.24841" y1="13.0487" x2="18.9696" y2="13.0487" gradientUnits="userSpaceOnUse">
<stop stop-color="#F08504"/>
<stop offset="1" stop-color="#E5322D"/>
</linearGradient>
<linearGradient id="paint6_linear_2233_2209" x1="9.56309" y1="14.5032" x2="18.5692" y2="14.5032" gradientUnits="userSpaceOnUse">
<stop stop-color="#F08504"/>
<stop offset="1" stop-color="#E5322D"/>
</linearGradient>
<linearGradient id="paint7_linear_2233_2209" x1="12.733" y1="16.1822" x2="18.7451" y2="16.1822" gradientUnits="userSpaceOnUse">
<stop stop-color="#F08504"/>
<stop offset="1" stop-color="#E5322D"/>
</linearGradient>
<linearGradient id="paint8_linear_2233_2209" x1="20.9159" y1="34.6549" x2="35.0855" y2="21.4731" gradientUnits="userSpaceOnUse">
<stop stop-color="#97BE11"/>
<stop offset="1" stop-color="#258F2D"/>
</linearGradient>
<linearGradient id="paint9_linear_2233_2209" x1="17.4127" y1="30.8974" x2="31.5884" y2="17.7156" gradientUnits="userSpaceOnUse">
<stop stop-color="#97BE11"/>
<stop offset="1" stop-color="#258F2D"/>
</linearGradient>
<linearGradient id="paint10_linear_2233_2209" x1="22.461" y1="36.3217" x2="36.6367" y2="23.1399" gradientUnits="userSpaceOnUse">
<stop stop-color="#97BE11"/>
<stop offset="1" stop-color="#258F2D"/>
</linearGradient>
<linearGradient id="paint11_linear_2233_2209" x1="19.2239" y1="32.8368" x2="33.3936" y2="19.661" gradientUnits="userSpaceOnUse">
<stop stop-color="#97BE11"/>
<stop offset="1" stop-color="#258F2D"/>
</linearGradient>
<linearGradient id="paint12_linear_2233_2209" x1="15.7873" y1="35.9941" x2="5.01761" y2="23.2366" gradientUnits="userSpaceOnUse">
<stop stop-color="#3AB4E6"/>
<stop offset="1" stop-color="#004996"/>
</linearGradient>
<linearGradient id="paint13_linear_2233_2209" x1="17.4848" y1="34.5641" x2="6.70904" y2="21.8066" gradientUnits="userSpaceOnUse">
<stop stop-color="#3AB4E6"/>
<stop offset="1" stop-color="#004996"/>
</linearGradient>
<linearGradient id="paint14_linear_2233_2209" x1="19.333" y1="33.0002" x2="8.56329" y2="20.2426" gradientUnits="userSpaceOnUse">
<stop stop-color="#3AB4E6"/>
<stop offset="1" stop-color="#004996"/>
</linearGradient>
<linearGradient id="paint15_linear_2233_2209" x1="21.3328" y1="31.3156" x2="10.5571" y2="18.558" gradientUnits="userSpaceOnUse">
<stop stop-color="#3AB4E6"/>
<stop offset="1" stop-color="#004996"/>
</linearGradient>
</defs>
</svg>
