<svg width="40" height="40" viewBox="0 0 40 40" fill="none" xmlns="http://www.w3.org/2000/svg">
<path d="M7.77307 13.2689C7.77307 13.3622 7.77307 13.5022 7.81307 13.6822C7.85307 14.0422 7.92639 14.5422 8.03306 15.1022C8.17647 15.7337 8.36132 16.3551 8.5864 16.9623C8.84633 17.6166 9.16543 18.2459 9.53973 18.8422C9.7264 19.1356 9.91972 19.4089 10.1131 19.6689C10.3064 19.9289 10.5397 20.1756 10.7464 20.3956C11.1199 20.7899 11.5307 21.1472 11.9731 21.4623C13.7331 22.7956 16.6864 23.1023 18.8197 22.7956C18.8573 22.8068 18.8973 22.8064 18.9346 22.7943C18.9719 22.7823 19.0047 22.7592 19.0285 22.7281C19.0524 22.697 19.0662 22.6594 19.0682 22.6202C19.0702 22.5811 19.0603 22.5423 19.0397 22.5089C18.6175 20.6662 18.9232 18.7316 19.8931 17.1089C20.4575 16.233 21.1294 15.4312 21.8931 14.7223L22.1997 14.4289C22.4831 14.1881 22.7815 13.9654 23.0931 13.7622C24.1301 13.0894 25.2829 12.6147 26.4931 12.3622C27.8459 12.0952 29.2336 12.0546 30.5997 12.2423C31.0886 12.3079 31.5737 12.3992 32.0531 12.5156L32.5997 12.6689C32.5831 11.7797 32.4394 10.8975 32.1731 10.0489C31.8778 9.15191 31.4654 8.29785 30.9464 7.50891C29.7812 5.75158 28.1709 4.33455 26.2797 3.40224C24.2787 2.39176 22.061 1.88597 19.8197 1.92892C17.595 1.96315 15.4146 2.55695 13.4797 3.65558C11.651 4.66362 10.1198 6.1351 9.03973 7.92224C8.11469 9.48421 7.66523 11.2821 7.7464 13.0956L7.77307 13.2689Z" fill="url(#paint0_linear_2233_144)"/>
<path d="M38.8196 23.6553C38.7529 23.1286 38.6596 22.6086 38.5463 22.102C38.2925 21.1294 37.9114 20.1947 37.413 19.322C36.5395 17.7261 35.2062 16.43 33.5863 15.602L33.0929 15.362C32.6575 15.1683 32.2125 14.9969 31.7596 14.8486C30.4714 14.4194 29.1165 14.2252 27.7596 14.2753C24.8663 14.3286 21.6129 16.2219 20.4263 18.9419C20.41 18.9918 20.41 19.0455 20.4263 19.0953C20.4378 19.14 20.4636 19.1798 20.4996 19.2086C21.5769 20.277 22.5647 21.432 23.453 22.6619C24.2317 24.0087 24.7963 25.4683 25.1263 26.9886V27.102C25.155 27.2004 25.1772 27.3006 25.1929 27.4019C25.2329 27.6553 25.293 28.0353 25.333 28.5153C25.3561 29.0714 25.3383 29.6285 25.2796 30.1819C25.1936 30.8474 25.0463 31.5035 24.8396 32.1419C24.7263 32.4753 24.5996 32.8086 24.4596 33.1553C24.3196 33.502 24.1463 33.8219 23.9796 34.1086C23.6635 34.6923 23.2977 35.2477 22.8863 35.7686C22.5886 36.1603 22.2657 36.5322 21.9196 36.882L21.5129 37.2886C23.1436 38.1758 24.9947 38.5761 26.8463 38.4419C28.9455 38.3017 30.971 37.612 32.7196 36.4419C34.5928 35.2256 36.1368 33.5658 37.2149 31.6098C38.2929 29.6537 38.8716 27.4619 38.8996 25.2286C38.9079 24.703 38.8812 24.1774 38.8196 23.6553Z" fill="url(#paint1_linear_2233_144)"/>
<path d="M22.6204 32.3221C23.5071 30.6821 23.5204 28.6954 23.3538 26.8887C23.305 25.4832 22.8765 24.117 22.1138 22.9354C21.0671 23.8887 19.3604 24.0154 18.0071 24.1154C17.3432 24.1906 16.6751 24.2218 16.0071 24.2087C14.9669 24.1619 13.9366 23.985 12.9404 23.6821L12.5471 23.5487C12.1895 23.4294 11.8417 23.2823 11.5071 23.1087C11.0134 22.8597 10.5426 22.5674 10.1004 22.2354C9.85376 22.0421 9.5871 21.8354 9.33376 21.6087C9.08043 21.3821 8.85377 21.1354 8.6071 20.8687C8.12983 20.3309 7.69936 19.7532 7.32042 19.1421C6.98637 18.5687 6.6902 17.9741 6.43376 17.3621C6.22043 16.8154 6.06043 16.3221 5.95376 15.9687C5.89652 15.7871 5.84979 15.6024 5.81376 15.4154C4.24153 16.3756 2.97453 17.7628 2.16042 19.4154C1.24613 21.297 0.82408 23.3797 0.933759 25.4687C1.04765 27.7095 1.71905 29.8864 2.88709 31.8021C4.0387 33.715 5.64083 35.3171 7.55375 36.4687C9.34157 37.538 11.3777 38.1217 13.4604 38.1621C15.281 38.1987 17.0709 37.6903 18.6004 36.7021L19.0604 36.3821C19.4496 36.1027 19.8214 35.7999 20.1737 35.4754C20.6592 35.0447 21.1054 34.5718 21.5071 34.0621C21.7271 33.7887 21.9338 33.5154 22.1271 33.2221C22.3204 32.9287 22.4604 32.6287 22.6204 32.3221Z" fill="url(#paint2_linear_2233_144)"/>
<defs>
<linearGradient id="paint0_linear_2233_144" x1="13.8331" y1="21.5156" x2="26.0531" y2="1.96225" gradientUnits="userSpaceOnUse">
<stop stop-color="#E5322D"/>
<stop offset="1" stop-color="#F08504"/>
</linearGradient>
<linearGradient id="paint1_linear_2233_144" x1="21.5063" y1="18.3553" x2="34.8396" y2="34.7953" gradientUnits="userSpaceOnUse">
<stop stop-color="#004996"/>
<stop offset="1" stop-color="#3AB4E6"/>
</linearGradient>
<linearGradient id="paint2_linear_2233_144" x1="2.95376" y1="31.5354" x2="20.9538" y2="20.8687" gradientUnits="userSpaceOnUse">
<stop stop-color="#97BE11"/>
<stop offset="1" stop-color="#258F2D"/>
</linearGradient>
</defs>
</svg>
